<?xml version="1.0" encoding="utf-8" ?><svg xmlns="http://www.w3.org/2000/svg" xmlns:xlink="http://www.w3.org/1999/xlink" width="1024" height="640" viewBox="0 0 1024 640"><path fill="#0D4C4E" transform="scale(1.23821 1.23791)" d="M261.186 78.0923C266.32 74.2598 284.744 65.9742 291.027 63.18C319.316 50.6099 349.241 41.8947 380.021 38.2819C390.152 37.0928 400.645 37.1967 410.838 37.0968C457.087 36.6435 503.771 49.2799 544.183 71.6024C547.465 73.4156 558.155 79.0131 560.568 81.3883C569.211 86.1905 580.588 94.9105 588.576 100.765C613.293 118.882 635.973 139.25 658.619 159.85C666.668 167.161 674.583 174.619 682.358 182.221C686.097 185.809 692.078 191.257 695.357 194.999C703.44 202.139 711.547 209.502 720.153 216.011C734.334 226.735 750.17 234.453 765.989 242.364C769.453 244.097 777.891 246.803 778.061 251.211C778.102 252.288 777.61 253.428 777.1 254.353C773.282 257.273 769.354 260.044 765.323 262.659C764.215 276.209 761.66 274.297 755.272 283.351C754.419 283.668 752.073 284.418 751.547 284.966L750.222 285.502C747.462 287.562 745.272 290.341 742.927 292.011C737.86 295.62 736.128 296.451 731.579 300.75C730.939 300.835 728.149 301.236 727.781 301.475C723.818 304.049 716.313 308.754 713.04 311.746L713.058 312.316L714.322 313.249L714.392 314.021C713.027 315.218 712.235 314.304 711.289 314.629C709.547 315.228 710.853 317.687 708.686 318.302C707.997 317.582 707.754 317.29 706.94 316.731C705.099 317.813 703.06 320.125 701.278 321.37C695.241 325.586 690.746 329.379 685.342 334.403C681.776 338.482 677.984 342.35 674.349 346.365C671.708 349.282 668.882 353.259 665.772 355.566C653.748 368.364 641.59 381.038 629.86 394.112C627.834 396.37 627.941 400.987 624.808 401.876C623.616 401.728 622.681 401.39 621.636 402.191C618.143 404.866 615.034 408.435 611.781 411.435C607.003 415.84 601.976 419.969 597.274 424.46L596.851 425.808C592.626 426.616 590.906 431.292 587.673 433.503C585.808 434.778 583.203 434.901 581.222 436.102C578.698 437.633 576.478 440.379 573.878 441.588C570.642 445.171 568.105 445.888 565.602 448.284C564.858 448.997 564.893 450.357 564.312 450.994C561.901 453.635 555.886 451.819 554.993 457.735C554.284 458.382 554.141 458.448 553.196 458.621L551.65 457.817C548.875 458.693 526.688 472.012 523.799 474.186L522.34 474.964C519.859 474.911 496.397 486.192 491.984 488.007C473.327 495.592 453.943 501.25 434.135 504.893C410.666 509.286 389.39 510.824 365.638 508.716C357.795 508.18 349.447 507.988 341.699 506.767C261.651 494.151 191.933 449.513 134.628 393.835C125.78 386.028 117.074 378.852 109.162 370C101.837 361.804 92.5391 353.8 84.1252 346.711C76.8451 340.578 67.7876 335.322 59.7093 330.319C53.6915 326.592 46.8731 323.85 41.087 319.662C14.8805 301.669 40.1742 278.722 38.9391 271.984C38.1567 272.021 37.5877 272.136 36.8913 271.802C37.3885 270.945 39.1804 271.061 39.3359 270.799C44.2423 262.536 44.5595 256.296 53.2002 250.577C54.1255 247.686 55.0823 243.835 57.1905 241.621C64.4712 233.976 74.3298 228.101 83.0162 222.201C90.6009 217.151 97.8955 211.677 104.865 205.806C119.414 193.477 132.778 180.082 146.625 167.028C171.911 143.192 197.922 119.893 226.411 99.9111C236.457 92.8653 250.232 83.6271 261.186 78.0923ZM204.788 203.312C204.395 203.397 201.783 203.987 201.653 204.117C195.048 210.725 187.841 214.979 183.642 223.585C181.302 224.749 177.752 225.332 176.118 226.677C175.499 227.977 175.881 228.099 176.477 229.824L175.975 230.524C174.693 231.297 174.058 231.172 172.599 231.079L172.103 231.045C169.439 232.871 172.067 233.333 171.461 235.58C169.197 237.918 168.231 236.932 165.308 237.731C164.928 238.774 164.851 239.195 164.644 240.293L164.248 240.129C164.236 239.261 164.201 238.817 164.1 237.952C161.454 237.596 160.773 239.772 160.286 241.637C159.786 243.555 154.682 245.596 153.134 247.026C151.716 248.338 150.475 249.683 149.175 251.104C147.842 251.437 146.513 251.788 145.19 252.157L140.569 256.218C153.171 266.976 165.701 277.82 178.157 288.748C207.012 314.218 236.333 340.695 268.499 361.663C318.97 394.564 376.502 412.771 437.091 407.44C473.316 404.252 511.095 392.295 542.572 374.224C568.1 359.355 588.724 345.21 610.517 325.028C626.958 309.803 642.131 293.773 658.171 278.181L659.529 276.979C663.162 273.682 666.983 269.892 670.708 266.793L670.927 266.034C669.799 262.015 631.589 232.892 627.149 227.548C626.945 227.303 620.252 222.687 619.22 221.942C610.51 215.669 603.004 207.992 594.43 201.542C593.71 201 589.272 203.165 590.11 198.264C588.821 196.837 580.888 191.715 578.773 190.089C573.473 186.014 568.113 181.95 562.489 178.322C560.307 176.914 558.239 175.02 555.92 173.595C554.374 172.646 551.75 171.944 550.789 171.283C546.335 168.223 543.505 165.205 538.697 162.447C532.925 159.135 527.684 156.962 521.748 154.14C517.506 152.007 513.333 149.102 509.045 147.119C493.374 139.874 477.45 133.961 460.563 130.252C456.353 129.327 451.88 127.188 447.573 126.432C441.929 125.442 436.147 124.798 430.475 123.947C427.689 123.521 424.606 121.773 422.774 121.699C409.796 121.177 396.154 121.257 383.19 121.936C378.381 122.188 372.02 123.86 366.987 124.317C363.787 124.608 360.645 124.812 357.395 124.872C357.071 124.877 355.581 126.028 355.217 126.311C350.224 126.877 348.51 127.246 343.569 126.805C341.845 127.594 339.424 129.415 338.137 129.881C336.837 130.608 330.234 131.004 329.475 131.533C324.949 134.695 321.262 135.41 316.002 136.781C313.453 137.446 309.869 139.458 307.495 140.69C305.933 140.13 305.161 139.628 303.774 140.188L303.639 141.853C302.669 142.805 295.544 143.967 293.437 144.885C287.385 147.522 282.223 152.152 275.599 153.183C271.566 153.81 271.772 156.213 269.105 157.833C266.629 159.541 261.337 161.089 259.153 162.823C248.214 171.509 236.147 176.64 225.596 186.03C220.335 190.712 208.185 197.168 204.788 203.312Z"/><defs><linearGradient id="gradient_0" gradientUnits="userSpaceOnUse" x1="322.58481" y1="313.78046" x2="237.00259" y2="464.96027"><stop offset="0" stop-color="#76736B"/><stop offset="1" stop-color="#AAA69B"/></linearGradient></defs><path fill="url(#gradient_0)" transform="scale(1.23821 1.23791)" d="M53.2002 250.577L52.9384 253.883C53.2226 256.184 53.4656 258.479 53.9538 260.746C54.3188 262.758 54.7289 266.348 56.2801 267.631C57.3244 269.224 58.579 270.929 60.2078 271.99C60.9091 271.027 61.6794 270.89 62.8187 270.46L68.5215 272.779C71.9379 271.517 91.6558 282.775 95.3061 285.438C101.506 288.541 106.559 293.43 111.657 298.03C127.228 312.079 141.82 327.135 156.691 341.912C168.475 353.657 180.534 365.123 192.859 376.299C195.848 378.991 198.491 381.438 201.282 384.307C201.589 384.622 206.292 387.712 207.478 388.676C229.872 406.87 254.487 423.097 280.446 435.738C285.044 437.977 304.621 447.671 309.042 447.662L309.328 447.737C311.831 448.41 314.238 449.4 316.733 450.115C331.226 454.269 345.9 458.612 360.667 461.629C366.135 462.745 371.57 463.718 377.119 464.353C382.309 464.946 388.043 465.134 393.09 466.484C412.4 467.73 432.183 467.783 451.427 465.521L451.51 466.538C455.713 466.688 460.382 465.73 464.573 465.132C485.893 462.094 507.326 457.098 527.528 449.576C530.389 448.511 546.468 441.286 547.404 441.167C548.972 440.966 549.4 441.607 550.491 442.538L550.403 443.363L551.839 443.255L552.225 443.762C551.669 444.727 551.228 445.377 550.304 446.014C549.03 446.002 548.258 445.676 547.275 446.552C547.035 447.427 547.08 448.025 546.2 448.478C544.342 449.432 541.906 449.166 539.966 450.155C537.158 451.586 535.055 454.218 532.342 455.797C527.158 458.815 521.135 460.739 515.998 463.788C514.76 464.522 513.751 465.956 512.867 467.08C507.664 470.038 502.077 472.874 496.407 474.822C492.352 476.401 479.131 480.29 476.904 482.93L476.952 483.362C479.363 483.92 482.75 483.771 485.12 483.09L484.398 483.082L484.856 482.968C487.023 482.416 488.977 481.773 490.136 479.74C490.197 479.633 490.252 479.524 490.309 479.415L490.773 479.43C491.012 480.047 491.269 480.663 491.483 481.29C493.121 480.645 494.725 479.827 496.398 479.295C500.827 477.89 505.687 477.066 509.866 475.013C511.999 473.965 513.38 471.861 515.461 470.725C515.853 470.511 516.632 470.905 517.067 471.038C518.219 470.226 517.672 469.126 518.677 468.394C518.98 468.725 519.257 469.051 519.636 469.298C520.884 470.111 526.259 466.949 528.057 466.536C530.078 464.807 533.044 463.548 535.402 462.255C540.762 459.319 546.256 456.498 551.428 453.241C553.505 451.933 553.295 450.452 554.159 449.943C555.427 449.194 557.501 449.381 558.883 448.618C560.253 447.861 560.781 445.811 562.124 444.808L563.314 445.612C565.152 445.182 566.999 443.708 568.597 442.691C574.438 438.731 579.571 434.127 585.125 429.835C588.039 427.583 591.244 425.729 594.155 423.459C600.934 418.172 607.122 412.275 613.547 406.58C617.418 403.15 621.591 399.934 625.272 396.304C628.112 393.502 630.164 390.043 632.764 387.036C636.577 382.628 641.127 378.599 645.347 374.578C650.168 369.986 655.036 365.621 659.703 360.849C660.821 359.706 663.546 356.288 664.896 355.751C665.173 355.641 665.48 355.628 665.772 355.566C653.748 368.364 641.59 381.038 629.86 394.112C627.834 396.37 627.941 400.987 624.808 401.876C623.616 401.728 622.681 401.39 621.636 402.191C618.143 404.866 615.034 408.435 611.781 411.435C607.003 415.84 601.976 419.969 597.274 424.46L596.851 425.808C592.626 426.616 590.906 431.292 587.673 433.503C585.808 434.778 583.203 434.901 581.222 436.102C578.698 437.633 576.478 440.379 573.878 441.588C570.642 445.171 568.105 445.888 565.602 448.284C564.858 448.997 564.893 450.357 564.312 450.994C561.901 453.635 555.886 451.819 554.993 457.735C554.284 458.382 554.141 458.448 553.196 458.621L551.65 457.817C548.875 458.693 526.688 472.012 523.799 474.186L522.34 474.964C519.859 474.911 496.397 486.192 491.984 488.007C473.327 495.592 453.943 501.25 434.135 504.893C410.666 509.286 389.39 510.824 365.638 508.716C357.795 508.18 349.447 507.988 341.699 506.767C261.651 494.151 191.933 449.513 134.628 393.835C125.78 386.028 117.074 378.852 109.162 370C101.837 361.804 92.5391 353.8 84.1252 346.711C76.8451 340.578 67.7876 335.322 59.7093 330.319C53.6915 326.592 46.8731 323.85 41.087 319.662C14.8805 301.669 40.1742 278.722 38.9391 271.984C38.1567 272.021 37.5877 272.136 36.8913 271.802C37.3885 270.945 39.1804 271.061 39.3359 270.799C44.2423 262.536 44.5595 256.296 53.2002 250.577Z"/><defs><linearGradient id="gradient_1" gradientUnits="userSpaceOnUse" x1="259.36371" y1="430.53299" x2="336.14001" y2="308.20386"><stop offset="0" stop-color="#383935"/><stop offset="1" stop-color="#595A52"/></linearGradient></defs><path fill="url(#gradient_1)" transform="scale(1.23821 1.23791)" d="M62.8187 270.46L68.5215 272.779C71.9379 271.517 91.6558 282.775 95.3061 285.438C101.506 288.541 106.559 293.43 111.657 298.03C127.228 312.079 141.82 327.135 156.691 341.912C168.475 353.657 180.534 365.123 192.859 376.299C195.848 378.991 198.491 381.438 201.282 384.307C201.589 384.622 206.292 387.712 207.478 388.676C229.872 406.87 254.487 423.097 280.446 435.738C285.044 437.977 304.621 447.671 309.042 447.662L309.328 447.737C311.831 448.41 314.238 449.4 316.733 450.115C331.226 454.269 345.9 458.612 360.667 461.629C366.135 462.745 371.57 463.718 377.119 464.353C382.309 464.946 388.043 465.134 393.09 466.484C412.4 467.73 432.183 467.783 451.427 465.521L451.51 466.538C455.713 466.688 460.382 465.73 464.573 465.132C485.893 462.094 507.326 457.098 527.528 449.576C530.389 448.511 546.468 441.286 547.404 441.167C548.972 440.966 549.4 441.607 550.491 442.538L550.403 443.363C549.139 443.844 547.604 444.629 546.353 445.213C482.66 474.944 411.662 481.529 343.463 464.867C281.374 449.698 228.785 416.602 181.704 374.002C165.776 359.404 150.181 344.447 134.929 329.142C123.101 317.272 111.911 306.035 99.4913 294.789C87.5692 283.992 71.8223 281.002 60.2078 271.99C60.9091 271.027 61.6794 270.89 62.8187 270.46Z"/><path fill="#616A64" transform="scale(1.23821 1.23791)" d="M393.09 466.484C412.4 467.73 432.183 467.783 451.427 465.521L451.51 466.538C448.75 466.88 445.98 467.137 443.204 467.307C436.878 467.72 395.638 468.722 393.09 466.484Z"/><path fill="#494C45" transform="scale(1.23821 1.23791)" d="M68.5215 272.779C71.9379 271.517 91.6558 282.775 95.3061 285.438C94.5385 285.203 93.0604 284.566 92.5086 284.821C94.2999 286.094 95.8398 287.182 97.5266 288.612L97.2515 288.73C92.1554 285.223 88.6388 282.899 83.1022 280.049C78.5258 277.694 72.8622 275.298 68.5215 272.779Z"/><path fill="#C8C2B9" transform="scale(1.23821 1.23791)" d="M53.2002 250.577L52.9384 253.883L52.9332 254.375C52.8594 258.242 45.6484 273.667 42.7549 276.646C33.9034 285.187 28.1002 300.576 37.8893 310.633C43.0112 315.895 53.0832 321.219 59.6015 324.63C78.7144 334.633 93.1986 348.376 108.537 363.245C112.366 366.956 115.972 371.539 119.881 375.242C129.958 384.24 139.92 394.178 149.975 403.088C160.575 412.317 171.479 421.19 182.669 429.694C188.999 434.564 195.293 439.35 201.796 443.977C208.98 449.089 217.541 453.172 224.663 458.069C246.896 473.355 269.192 481.796 294.487 490.444C322.497 500.019 347.877 505.418 377.681 506.053C410.785 506.664 443.744 501.536 475.098 490.895C477.76 489.998 487 487.042 488.615 485.691C490.042 482.94 488.055 483.664 489.58 481.975L491.162 481.673L491.483 481.29C493.121 480.645 494.725 479.827 496.398 479.295C500.827 477.89 505.687 477.066 509.866 475.013C511.999 473.965 513.38 471.861 515.461 470.725C515.853 470.511 516.632 470.905 517.067 471.038C518.219 470.226 517.672 469.126 518.677 468.394C518.98 468.725 519.257 469.051 519.636 469.298C520.884 470.111 526.259 466.949 528.057 466.536C530.078 464.807 533.044 463.548 535.402 462.255C540.762 459.319 546.256 456.498 551.428 453.241C553.505 451.933 553.295 450.452 554.159 449.943C555.427 449.194 557.501 449.381 558.883 448.618C560.253 447.861 560.781 445.811 562.124 444.808L563.314 445.612C565.152 445.182 566.999 443.708 568.597 442.691C574.438 438.731 579.571 434.127 585.125 429.835C588.039 427.583 591.244 425.729 594.155 423.459C600.934 418.172 607.122 412.275 613.547 406.58C617.418 403.15 621.591 399.934 625.272 396.304C628.112 393.502 630.164 390.043 632.764 387.036C636.577 382.628 641.127 378.599 645.347 374.578C650.168 369.986 655.036 365.621 659.703 360.849C660.821 359.706 663.546 356.288 664.896 355.751C665.173 355.641 665.48 355.628 665.772 355.566C653.748 368.364 641.59 381.038 629.86 394.112C627.834 396.37 627.941 400.987 624.808 401.876C623.616 401.728 622.681 401.39 621.636 402.191C618.143 404.866 615.034 408.435 611.781 411.435C607.003 415.84 601.976 419.969 597.274 424.46L596.851 425.808C592.626 426.616 590.906 431.292 587.673 433.503C585.808 434.778 583.203 434.901 581.222 436.102C578.698 437.633 576.478 440.379 573.878 441.588C570.642 445.171 568.105 445.888 565.602 448.284C564.858 448.997 564.893 450.357 564.312 450.994C561.901 453.635 555.886 451.819 554.993 457.735C554.284 458.382 554.141 458.448 553.196 458.621L551.65 457.817C548.875 458.693 526.688 472.012 523.799 474.186L522.34 474.964C519.859 474.911 496.397 486.192 491.984 488.007C473.327 495.592 453.943 501.25 434.135 504.893C410.666 509.286 389.39 510.824 365.638 508.716C357.795 508.18 349.447 507.988 341.699 506.767C261.651 494.151 191.933 449.513 134.628 393.835C125.78 386.028 117.074 378.852 109.162 370C101.837 361.804 92.5391 353.8 84.1252 346.711C76.8451 340.578 67.7876 335.322 59.7093 330.319C53.6915 326.592 46.8731 323.85 41.087 319.662C14.8805 301.669 40.1742 278.722 38.9391 271.984C38.1567 272.021 37.5877 272.136 36.8913 271.802C37.3885 270.945 39.1804 271.061 39.3359 270.799C44.2423 262.536 44.5595 256.296 53.2002 250.577Z"/><path fill="#898984" transform="scale(1.23821 1.23791)" d="M491.483 481.29C493.121 480.645 494.725 479.827 496.398 479.295C500.827 477.89 505.687 477.066 509.866 475.013C511.999 473.965 513.38 471.861 515.461 470.725C515.853 470.511 516.632 470.905 517.067 471.038C518.219 470.226 517.672 469.126 518.677 468.394C518.98 468.725 519.257 469.051 519.636 469.298C520.884 470.111 526.259 466.949 528.057 466.536C527.897 466.881 527.51 468.003 527.27 468.23C525.239 470.151 501.479 481.084 498.16 482.301C496.094 483.059 493.883 483.858 491.661 483.842L491.218 483.497L491.162 481.673L491.483 481.29Z"/><path fill="#ACA79F" transform="scale(1.23821 1.23791)" d="M496.407 474.822C496.088 474.264 496.103 473.21 496.033 472.55L496.475 472.156C496.704 472.238 497.704 472.691 497.874 472.655C498.22 472.584 499.224 471.718 499.564 471.484C503.554 468.739 507.775 466.188 512.867 467.08C507.664 470.038 502.077 472.874 496.407 474.822Z"/><defs><linearGradient id="gradient_2" gradientUnits="userSpaceOnUse" x1="533.49255" y1="187.62007" x2="591.17444" y2="102.8297"><stop offset="0" stop-color="#278B8F"/><stop offset="1" stop-color="#66A8AD"/></linearGradient></defs><path fill="url(#gradient_2)" transform="scale(1.23821 1.23791)" d="M261.186 78.0923C266.32 74.2598 284.744 65.9742 291.027 63.18C319.316 50.6099 349.241 41.8947 380.021 38.2819C390.152 37.0928 400.645 37.1967 410.838 37.0968C457.087 36.6435 503.771 49.2799 544.183 71.6024C547.465 73.4156 558.155 79.0131 560.568 81.3883C561.628 84.1864 563.959 83.3921 565.074 85.5148C563.239 84.7735 563.48 84.1031 561.373 84.109L561.03 84.5125C561.745 85.3285 561.443 85.0684 562.567 85.4338C565.582 87.9452 569.682 90.7446 572.944 92.926C582.642 99.4117 591.181 105.933 599.152 114.503C601.843 117.396 605.622 119.884 608.23 123.071C609.866 123.983 625.481 138.157 627.957 140.349C636.372 147.672 644.676 155.123 652.865 162.699C683.626 191.373 713.412 222.049 752.565 239.241C758.687 241.929 767.864 245.938 773.556 249.051L774.429 249.241C774.342 249.873 774.235 249.927 773.928 250.533C766.776 256.637 740.344 244.751 733.234 240.027C731.478 238.86 720.737 231.725 719.96 231.689L720.688 232.825L720.542 233.277C717.076 231.914 700.416 220.672 698.388 218.237C697.143 217.06 696.486 216.668 695.058 215.746L693.759 214.781C693.418 214.038 692.777 213.482 692.02 213.184L691.126 213.64C688.957 214.771 680.231 206.36 678.272 204.694C675.559 202.387 674.879 199.139 671.016 198.557L670.62 198.499C668.603 190.896 660.843 190.791 655.938 185.882C658.106 179.615 641.809 172.609 638.049 168.529C638.034 168.331 638.015 168.133 637.993 167.935C637.934 167.457 637.838 166.625 637.444 166.344C631.845 162.349 626.175 158.325 620.738 154.134C611.117 146.718 601.963 138.74 592.596 131.124C590.83 129.434 590.687 128.789 588.631 130.297C575.083 114.369 559.025 104.075 540.343 95.0096C531.888 90.907 523.751 85.7159 515.098 81.9176C508.459 78.6483 500.838 77.0314 494.068 74.3637C471.809 65.593 448.288 64.5092 425.122 59.4947C418.254 58.008 410.65 58.5336 403.597 58.5605C395.928 58.5898 388.18 58.354 380.507 58.4531C372.329 58.7318 364.158 59.4959 355.957 59.8161C352.205 58.2667 348.118 60.874 345.635 59.5683C345.33 56.6213 352.08 50.7854 354.193 47.2067L354.87 47.4553L355.705 45.2662C355.865 44.8625 356.92 43.2609 357.214 42.7944C333.642 47.556 311.369 55.132 289.393 64.8084C286.465 66.0974 261.794 78.3946 261.464 78.3663L261.186 78.0923Z"/><defs><linearGradient id="gradient_3" gradientUnits="userSpaceOnUse" x1="676.72107" y1="119.49379" x2="580.75775" y2="189.77643"><stop offset="0" stop-color="#8CC6CC"/><stop offset="1" stop-color="#CCF1F4"/></linearGradient></defs><path fill="url(#gradient_3)" transform="scale(1.23821 1.23791)" d="M505.657 70.0804C501.455 67.876 497.61 65.9908 493.054 64.4753C490.499 63.6253 485.34 63.0194 485.171 59.5466C489.187 55.1803 501.301 66.4422 505.194 62.0937L504.638 61.3374L505.167 61.1077C534.145 70.2121 560.014 86.3612 583.918 104.82C588.978 108.73 593.972 112.725 598.898 116.804C601.179 118.683 605.467 123.15 608.23 123.071C609.866 123.983 625.481 138.157 627.957 140.349C636.372 147.672 644.676 155.123 652.865 162.699C683.626 191.373 713.412 222.049 752.565 239.241C758.687 241.929 767.864 245.938 773.556 249.051L773.131 249.76C767.731 253.543 757.092 245.971 752.025 243.733C732.288 235.013 713.802 222.837 697.292 208.917C682.143 196.395 668.801 181.399 653.765 168.758C641.867 158.754 630.831 147.607 618.854 137.833C616.338 135.78 615.038 134.01 612.216 133.109C611.251 131.802 610.418 130.4 609.06 129.592C608.9 129.597 607.482 129.63 607.223 129.482C606.405 129.086 600.559 124.809 600.466 124.405C599.722 121.16 597.277 121.15 594.364 119.007C591.109 116.602 586.676 115.333 583.371 113.284C576.251 108.867 569.229 104.877 561.75 101.086C558.372 99.3748 555.447 96.5003 551.92 94.6986L534.143 85.7894C530.841 84.1605 525.659 81.8279 522.745 79.8308C520.039 74.4485 511.434 72.49 505.657 70.0804Z"/><path fill="#AEDDE1" transform="scale(1.23821 1.23791)" d="M450.696 47.2703C459.358 47.6523 498.304 56.6298 505.167 61.1077L504.638 61.3374L505.194 62.0937C501.301 66.4422 489.187 55.1803 485.171 59.5466C485.34 63.0194 490.499 63.6253 493.054 64.4753C497.61 65.9908 501.455 67.876 505.657 70.0804C499.606 69.6255 483.705 63.6923 477.24 61.7378C466.731 58.561 456.389 56.8921 445.953 53.7915C445.066 53.528 444.568 54.1349 443.731 54.455C442.184 53.4794 436.903 52.599 435.675 52.1742C436.007 51.4756 436.022 51.5724 436.594 51.0019C436.345 49.8335 435.731 49.596 434.719 48.6461C435.735 47.9279 448.391 47.3668 450.696 47.2703Z"/><path fill="#7EBBBF" transform="scale(1.23821 1.23791)" d="M522.745 79.8308C510.688 76.8075 498.678 68.0411 484.73 66.0695C482.188 65.7102 440.69 55.3338 442.297 56.4876L442.317 56.1807C446.274 55.5533 486.713 66.0306 493.657 67.5328C493.111 66.811 464.386 58.8497 460.982 58.0937C454.563 56.6682 440.088 55.9435 434.398 52.8905C433.633 51.2153 435.081 52.5291 435.422 50.4458L434.072 48.9475C434.706 45.9538 448.135 46.7315 450.696 47.2703C448.391 47.3668 435.735 47.9279 434.719 48.6461C435.731 49.596 436.345 49.8335 436.594 51.0019C436.022 51.5724 436.007 51.4756 435.675 52.1742C436.903 52.599 442.184 53.4794 443.731 54.455C444.568 54.1349 445.066 53.528 445.953 53.7915C456.389 56.8921 466.731 58.561 477.24 61.7378C483.705 63.6923 499.606 69.6255 505.657 70.0804C511.434 72.49 520.039 74.4485 522.745 79.8308Z"/><path fill="#297A7E" transform="scale(1.23821 1.23791)" d="M355.705 45.2662C355.865 44.8625 356.92 43.2609 357.214 42.7944C357.12 44.2222 357.365 44.5969 356.543 45.4198L355.705 45.2662Z"/><path fill="#616A64" transform="scale(1.23821 1.23791)" d="M773.286 252.732C775.254 252.974 775.463 253.106 777.1 254.353C773.282 257.273 769.354 260.044 765.323 262.659C764.215 276.209 761.66 274.297 755.272 283.351C754.419 283.668 752.073 284.418 751.547 284.966L750.222 285.502C747.462 287.562 745.272 290.341 742.927 292.011C737.86 295.62 736.128 296.451 731.579 300.75C730.939 300.835 728.149 301.236 727.781 301.475C723.818 304.049 716.313 308.754 713.04 311.746L713.058 312.316L714.322 313.249L714.392 314.021C713.027 315.218 712.235 314.304 711.289 314.629C709.547 315.228 710.853 317.687 708.686 318.302C707.997 317.582 707.754 317.29 706.94 316.731C705.099 317.813 703.06 320.125 701.278 321.37C695.241 325.586 690.746 329.379 685.342 334.403C681.776 338.482 677.984 342.35 674.349 346.365C671.708 349.282 668.882 353.259 665.772 355.566C665.48 355.628 665.173 355.641 664.896 355.751C663.546 356.288 660.821 359.706 659.703 360.849C655.036 365.621 650.168 369.986 645.347 374.578C641.127 378.599 636.577 382.628 632.764 387.036C630.164 390.043 628.112 393.502 625.272 396.304C621.591 399.934 617.418 403.15 613.547 406.58C607.122 412.275 600.934 418.172 594.155 423.459C591.244 425.729 588.039 427.583 585.125 429.835C579.571 434.127 574.438 438.731 568.597 442.691C566.999 443.708 565.152 445.182 563.314 445.612L562.124 444.808C560.781 445.811 560.253 447.861 558.883 448.618C557.501 449.381 555.427 449.194 554.159 449.943C553.295 450.452 553.505 451.933 551.428 453.241C546.256 456.498 540.762 459.319 535.402 462.255C533.044 463.548 530.078 464.807 528.057 466.536C526.259 466.949 520.884 470.111 519.636 469.298C519.257 469.051 518.98 468.725 518.677 468.394C517.672 469.126 518.219 470.226 517.067 471.038C516.632 470.905 515.853 470.511 515.461 470.725C513.38 471.861 511.999 473.965 509.866 475.013C505.687 477.066 500.827 477.89 496.398 479.295C494.725 479.827 493.121 480.645 491.483 481.29C491.269 480.663 491.012 480.047 490.773 479.43L490.309 479.415C490.252 479.524 490.197 479.633 490.136 479.74C488.977 481.773 487.023 482.416 484.856 482.968L484.398 483.082L485.12 483.09C482.75 483.771 479.363 483.92 476.952 483.362L476.904 482.93C479.131 480.29 492.352 476.401 496.407 474.822C502.077 472.874 507.664 470.038 512.867 467.08C513.751 465.956 514.76 464.522 515.998 463.788C521.135 460.739 527.158 458.815 532.342 455.797C535.055 454.218 537.158 451.586 539.966 450.155C541.906 449.166 544.342 449.432 546.2 448.478C547.08 448.025 547.035 447.427 547.275 446.552C548.258 445.676 549.03 446.002 550.304 446.014C551.228 445.377 551.669 444.727 552.225 443.762L551.839 443.255L550.403 443.363L550.491 442.538C549.4 441.607 548.972 440.966 547.404 441.167C546.468 441.286 530.389 448.511 527.528 449.576C507.326 457.098 485.893 462.094 464.573 465.132C460.382 465.73 455.713 466.688 451.51 466.538L451.427 465.521C455.683 461.754 485.782 460.294 492.864 458.067C494.986 457.4 499.182 454.464 500.35 454.267C507.985 452.978 514.5 451.722 521.552 448.236C523.27 447.384 526.858 446.48 528.311 445.394C526.867 445.086 525.166 445.679 523.25 445.695L522.886 445.695C526.88 443.656 527.633 444.543 530.935 442.947C549.227 434.135 567.999 426.927 585.061 415.728C638.605 380.583 677.797 328.78 723.596 284.919C727.227 281.614 731.84 279.213 735.786 276.473C746.97 268.706 762.264 262.346 772.84 254.145C763.023 257.111 731.482 277.776 728.045 278.027L728.087 277.486C732.906 271.77 765.709 255.46 773.286 252.732Z"/><path fill="#C8C2B9" transform="scale(1.23821 1.23791)" d="M685.342 334.403C685.492 331.868 716.422 298.667 720.928 294.676C726.54 289.705 740.727 282.581 747.525 277.278C753.497 272.62 758.902 266.493 765.323 262.659C764.215 276.209 761.66 274.297 755.272 283.351C754.419 283.668 752.073 284.418 751.547 284.966L750.222 285.502C747.462 287.562 745.272 290.341 742.927 292.011C737.86 295.62 736.128 296.451 731.579 300.75C730.939 300.835 728.149 301.236 727.781 301.475C723.818 304.049 716.313 308.754 713.04 311.746L713.058 312.316L714.322 313.249L714.392 314.021C713.027 315.218 712.235 314.304 711.289 314.629C709.547 315.228 710.853 317.687 708.686 318.302C707.997 317.582 707.754 317.29 706.94 316.731C705.099 317.813 703.06 320.125 701.278 321.37C695.241 325.586 690.746 329.379 685.342 334.403Z"/><path fill="#616A64" transform="scale(1.23821 1.23791)" d="M53.9538 260.746C61.3569 262.612 58.2746 265.649 64.2067 268.581C65.1668 269.055 67.195 267.307 68.2077 267.721C71.5325 269.081 70.4665 270.466 74.0969 269.413C75.7671 270.081 76.0097 270.283 77.392 271.368L77.5964 272.012C76.8359 272.588 76.3688 272.919 75.7058 273.6C76.406 274.187 84.1557 276.645 85.8696 277.284C86.0896 276.826 86.1372 276.696 86.2817 276.208C92.31 278.546 103.791 284.717 109.164 288.55C111.083 289.918 113.888 295.582 115.137 297.681C115.297 297.95 116.372 297.805 116.727 297.738C119.49 300.549 127.069 309.031 129.574 310.941L130.499 310.441C128.05 307.765 127.502 305.164 125.662 302.133L126.714 301.806C135.236 309.508 141.771 317.677 149.025 326.481C150.745 328.568 152.073 331.767 153.844 333.734C158.944 339.974 165.117 345.274 170.814 350.95C172.459 352.588 173.521 355.725 175.213 356.971C177.561 358.701 180.851 357.868 183.256 360.217C185.071 360.869 187.209 363.271 188.088 364.977C188.285 365.359 188.367 365.67 188.463 366.086L189.162 366.736L192.404 372.293C193.384 372.66 195.029 373.124 195.732 373.911C197.404 375.783 198.076 378.717 199.679 380.741C200.976 382.378 212.682 391.766 213.813 391.523C215.328 391.197 216.209 391.369 217.51 392.21C218.482 392.838 220.256 394.355 220.567 395.481C220.59 395.564 220.589 395.652 220.6 395.737L219.572 396.96C220.413 397.93 221.194 398.483 222.508 398.588C222.889 398.619 223.27 398.616 223.651 398.612C229.169 404.954 232.308 406.151 238.994 410.67C243.799 413.918 248.55 417.379 253.505 420.386C264.916 427.309 277.4 433.307 289.491 438.955C295.865 441.933 302.92 444.246 309.042 447.662C304.621 447.671 285.044 437.977 280.446 435.738C254.487 423.097 229.872 406.87 207.478 388.676C206.292 387.712 201.589 384.622 201.282 384.307C198.491 381.438 195.848 378.991 192.859 376.299C180.534 365.123 168.475 353.657 156.691 341.912C141.82 327.135 127.228 312.079 111.657 298.03C106.559 293.43 101.506 288.541 95.3061 285.438C91.6558 282.775 71.9379 271.517 68.5215 272.779L62.8187 270.46C61.6794 270.89 60.9091 271.027 60.2078 271.99C58.579 270.929 57.3244 269.224 56.2801 267.631C54.7289 266.348 54.3188 262.758 53.9538 260.746Z"/><path fill="#18413F" transform="scale(1.23821 1.23791)" d="M132.963 312.891C139.63 319.237 144.137 323.954 149.44 331.548C142.287 326.232 138.387 319.707 132.299 313.632L132.963 312.891Z"/><path fill="#0D4C4E" transform="scale(1.23821 1.23791)" d="M188.463 366.086L188.314 367.63L187.822 367.919C187.173 366.932 186.535 365.938 185.909 364.937C185.213 365.005 184.599 364.986 183.963 364.677C182.312 363.876 180.403 362.03 179.832 360.279L180.296 359.955L181.952 360.733L183.256 360.217C185.071 360.869 187.209 363.271 188.088 364.977C188.285 365.359 188.367 365.67 188.463 366.086Z"/><path fill="#494C45" transform="scale(1.23821 1.23791)" d="M56.2801 267.631C58.619 267.617 60.9159 269.218 62.8187 270.46C61.6794 270.89 60.9091 271.027 60.2078 271.99C58.579 270.929 57.3244 269.224 56.2801 267.631Z"/><path fill="#494C45" transform="scale(1.23821 1.23791)" d="M130.499 310.441C131.322 311.188 132.321 312.009 132.963 312.891L132.299 313.632C131.499 312.699 130.476 311.791 129.574 310.941L130.499 310.441Z"/><path fill="#53A0A4" transform="scale(1.23821 1.23791)" d="M560.568 81.3883C569.211 86.1905 580.588 94.9105 588.576 100.765C613.293 118.882 635.973 139.25 658.619 159.85C666.668 167.161 674.583 174.619 682.358 182.221C686.097 185.809 692.078 191.257 695.357 194.999C690.874 194.355 679.875 182.337 676.003 178.681C658.311 161.856 640.247 145.427 621.824 129.406C607.741 117.261 594.526 106.036 578.755 96.139C574.37 93.3874 567.284 86.9583 562.567 85.4338C561.443 85.0684 561.745 85.3285 561.03 84.5125L561.373 84.109C563.48 84.1031 563.239 84.7735 565.074 85.5148C563.959 83.3921 561.628 84.1864 560.568 81.3883Z"/><path fill="#18413F" transform="scale(1.23821 1.23791)" d="M153.844 333.734C154.919 333.34 155.438 333.023 156.566 333.483C162.288 335.819 185.831 359.774 192.126 365.564C194.866 368.084 198.862 370.562 201.11 373.424L201.197 373.954C198.483 374.047 192.729 367.774 189.162 366.736L188.463 366.086C188.367 365.67 188.285 365.359 188.088 364.977C187.209 363.271 185.071 360.869 183.256 360.217C180.851 357.868 177.561 358.701 175.213 356.971C173.521 355.725 172.459 352.588 170.814 350.95C165.117 345.274 158.944 339.974 153.844 333.734Z"/><path fill="#297A7E" transform="scale(1.23821 1.23791)" d="M720.542 233.277L720.688 232.825L719.96 231.689C720.737 231.725 731.478 238.86 733.234 240.027C740.344 244.751 766.776 256.637 773.928 250.533C774.235 249.927 774.342 249.873 774.429 249.241L775.56 249.566L775.854 250.207C774.858 251.264 774.294 251.475 773.033 252.113C771.264 252.202 765.965 253.95 764.013 254.441C758.663 256.347 756.204 254.02 751.826 252.47C741.023 248.644 731.189 242.914 721.92 236.241C721.385 235.856 720.77 233.988 720.542 233.277Z"/><path fill="#297A7E" transform="scale(1.23821 1.23791)" d="M355.957 59.8161C351.887 60.7231 345.721 60.4373 341.197 61.3811C337.052 62.2457 322.671 67.9365 319.751 65.8411C319.61 64.5668 319.501 64.1614 318.831 63.0675L319.889 62.909L320.33 63.4251C320.259 64.3414 320.119 64.9219 320.489 65.7594C323.636 66.2222 338.169 61.8267 341.765 60.4813C341.838 59.6501 341.919 58.8196 342.009 57.99C343.542 56.6454 346.17 54.345 347.509 52.9137C351.342 48.8144 350.638 47.8437 355.705 45.2662L354.87 47.4553L354.193 47.2067C352.08 50.7854 345.33 56.6213 345.635 59.5683C348.118 60.874 352.205 58.2667 355.957 59.8161Z"/><path fill="#53A0A4" transform="scale(1.23821 1.23791)" d="M693.759 214.781L695.058 215.746C695.498 217.778 696.126 217.373 697.575 219.131L697.825 219.59L697.077 219.618C694.513 218.44 693.027 217.808 693.759 214.781Z"/><path fill="#297A7E" transform="scale(1.23821 1.23791)" d="M588.631 130.297C590.687 128.789 590.83 129.434 592.596 131.124C592.18 131.864 592.222 131.822 591.529 132.31C590.092 132.031 589.863 131.431 588.631 130.297Z"/><path fill="#0F5B61" transform="scale(1.23821 1.23791)" d="M125.662 302.133C124.61 300.494 123.251 299.472 122.679 297.62L122.895 297.888C124.109 298.21 125.827 300.706 126.714 301.806L125.662 302.133Z"/><path fill="#7DDFAD" transform="scale(1.23821 1.23791)" d="M415.72 164.569C419.137 163.299 425.306 159.837 428.994 158.186C438.187 154.072 447.274 151.414 457.245 150.009C473.297 147.623 489.693 149.474 504.81 155.377C507.239 156.32 512.414 158.538 514.465 160.078C519.78 162.653 530.75 170.592 534.927 174.788C538.408 177.801 541.395 181.193 544.282 184.768C545.634 186.435 547.018 188.066 548.17 189.877C566.497 212.981 573.851 252.744 565.746 281.011C564.319 287.077 562.186 292.955 559.388 298.524C554.126 308.752 548.888 316.698 541.068 325.251C540.37 326.014 538.279 328.437 537.536 328.875C536.726 330.894 537.088 332.962 537.109 335.075C533.075 340.235 529.913 341.502 526.383 347.877C523.182 349.612 518.889 351.28 517.278 354.814C516.766 355.937 516.366 357.433 515.411 358.259C513.925 359.545 511.924 358.654 510.41 359.948C510.212 360.704 510.199 361.565 509.495 361.98C508.212 362.736 506.025 362.725 504.538 363.03C503.868 364.374 503.228 365.736 502.417 367.001C500.426 367.408 497.998 367.693 496.196 368.641C494.118 369.735 493.155 372.775 491.098 373.414C490.111 373.72 488.962 373.069 487.956 373.227C484.591 373.758 480.83 375.556 477.625 376.723L477.287 377.402C477.72 378.049 478.133 378.653 478.426 379.38C475.631 379.773 472.901 378.434 470.131 378.563C466.816 378.718 463.956 381.18 460.715 381.486C456.205 381.912 451.455 381.01 446.937 380.74C435.556 380.059 424.6 379.937 413.367 377.264C407.781 375.935 402.329 371.246 396.557 371.052C390.102 370.834 383.826 375.311 377.995 377.451C375.265 378.453 372.221 379.024 369.362 379.551C361.755 380.952 352.93 382.222 345.195 381.245C343.27 381.001 341.493 380.128 339.604 379.736C337.312 379.262 334.442 379.495 332.067 379.422C330.215 379.365 327.939 379.064 326.135 379.342C323.209 379.793 322.972 381.389 319.836 379.307C317.485 377.745 314.079 377.839 311.361 377.225C298.997 374.434 288.068 370.999 278.06 362.876C273.101 358.8 268.614 354.18 264.685 349.104C262.951 346.898 255.388 334.841 254.012 334.381L252.908 334.937C252.163 334.629 251.926 334.156 251.522 333.504C252.079 333.136 252.546 332.812 252.989 332.3C252.155 330.061 251.119 326.947 249.992 324.854C249.623 324.17 248.041 324.112 247.124 323.988C245.089 322.199 245.632 317.808 244.995 315.197C244.383 312.689 241.44 308.414 240.957 306.183C239.046 297.354 238.343 287.238 237.603 278.271L237.583 277.945C236.915 265.265 240.219 268.988 241.686 260.877C243.24 252.29 244.168 244.019 248.225 235.543C249.241 233.419 252.442 232.181 251.761 229.404C251.003 226.33 254.849 220.461 256.702 218.136C258.436 215.96 262.198 207.243 264.731 207.693C264.599 209.531 263.325 213.441 262.762 215.365C264.203 213.532 265.741 211.212 267.099 209.275L267.301 208.863C279.519 184.374 299.983 163.411 326.245 154.468C333.121 151.692 341.166 150.565 348.457 149.668C368.571 149.198 385.351 149.023 403.392 159.901C405.04 160.894 411.26 164.16 411.921 165.75C412.817 165.715 413.622 165.538 414.503 165.379L415.72 164.569Z"/><path fill="#E83C48" transform="scale(1.23821 1.23791)" d="M348.457 149.668C368.571 149.198 385.351 149.023 403.392 159.901C405.04 160.894 411.26 164.16 411.921 165.75C411.721 166.485 411.639 166.538 411.747 167.277C411.768 169.294 407.795 173.22 406.302 174.586C370.223 207.584 363.117 265.94 386.943 307.924C387.51 308.923 388.721 310.551 389.112 311.461C390.915 319.543 400.058 328.71 406.177 333.906C408.138 335.57 410.898 337.058 412.609 338.861C413.136 339.416 413.535 340.316 413.558 341.084L414.385 340.499L414.358 344.034L414.304 348.008C420.43 350.007 426.48 352.505 432.679 354.232C443.04 357.117 453.152 357.995 463.777 359.04C468.442 359.071 473.119 358.429 477.793 358.398C494.819 355.669 510.959 348.953 524.896 338.797C528.86 335.891 533.287 330.93 537.536 328.875C536.726 330.894 537.088 332.962 537.109 335.075C533.075 340.235 529.913 341.502 526.383 347.877C523.182 349.612 518.889 351.28 517.278 354.814C516.766 355.937 516.366 357.433 515.411 358.259C513.925 359.545 511.924 358.654 510.41 359.948C510.212 360.704 510.199 361.565 509.495 361.98C508.212 362.736 506.025 362.725 504.538 363.03C503.868 364.374 503.228 365.736 502.417 367.001C500.426 367.408 497.998 367.693 496.196 368.641C494.118 369.735 493.155 372.775 491.098 373.414C490.111 373.72 488.962 373.069 487.956 373.227C484.591 373.758 480.83 375.556 477.625 376.723L477.287 377.402C477.72 378.049 478.133 378.653 478.426 379.38C475.631 379.773 472.901 378.434 470.131 378.563C466.816 378.718 463.956 381.18 460.715 381.486C456.205 381.912 451.455 381.01 446.937 380.74C435.556 380.059 424.6 379.937 413.367 377.264C407.781 375.935 402.329 371.246 396.557 371.052C390.102 370.834 383.826 375.311 377.995 377.451C375.265 378.453 372.221 379.024 369.362 379.551C361.755 380.952 352.93 382.222 345.195 381.245C343.27 381.001 341.493 380.128 339.604 379.736C337.312 379.262 334.442 379.495 332.067 379.422C330.215 379.365 327.939 379.064 326.135 379.342C323.209 379.793 322.972 381.389 319.836 379.307C317.485 377.745 314.079 377.839 311.361 377.225C298.997 374.434 288.068 370.999 278.06 362.876C273.101 358.8 268.614 354.18 264.685 349.104C262.951 346.898 255.388 334.841 254.012 334.381L252.908 334.937C252.163 334.629 251.926 334.156 251.522 333.504C252.079 333.136 252.546 332.812 252.989 332.3C252.155 330.061 251.119 326.947 249.992 324.854C249.623 324.17 248.041 324.112 247.124 323.988C245.089 322.199 245.632 317.808 244.995 315.197C244.383 312.689 241.44 308.414 240.957 306.183C239.046 297.354 238.343 287.238 237.603 278.271L237.583 277.945C236.915 265.265 240.219 268.988 241.686 260.877C243.24 252.29 244.168 244.019 248.225 235.543C249.241 233.419 252.442 232.181 251.761 229.404C251.003 226.33 254.849 220.461 256.702 218.136C258.436 215.96 262.198 207.243 264.731 207.693C264.599 209.531 263.325 213.441 262.762 215.365C264.203 213.532 265.741 211.212 267.099 209.275L267.301 208.863C279.519 184.374 299.983 163.411 326.245 154.468C333.121 151.692 341.166 150.565 348.457 149.668Z"/><path fill="#898984" transform="scale(1.23821 1.23791)" d="M237.603 278.271L237.583 277.945C236.915 265.265 240.219 268.988 241.686 260.877C243.24 252.29 244.168 244.019 248.225 235.543C249.241 233.419 252.442 232.181 251.761 229.404C251.003 226.33 254.849 220.461 256.702 218.136C258.436 215.96 262.198 207.243 264.731 207.693C264.599 209.531 263.325 213.441 262.762 215.365C264.203 213.532 265.741 211.212 267.099 209.275C266.359 212.835 264.434 217.431 263.137 220.946C258.344 239.877 256.678 253.151 259.675 273.009L260.41 272.263C262.741 296.166 280.532 323.8 298.733 338.618C321.057 356.791 349.05 363.251 377.292 359.944C392.526 358.16 401.012 354.907 414.304 348.008C420.43 350.007 426.48 352.505 432.679 354.232C443.04 357.117 453.152 357.995 463.777 359.04C468.442 359.071 473.119 358.429 477.793 358.398C494.819 355.669 510.959 348.953 524.896 338.797C528.86 335.891 533.287 330.93 537.536 328.875C536.726 330.894 537.088 332.962 537.109 335.075C533.075 340.235 529.913 341.502 526.383 347.877C523.182 349.612 518.889 351.28 517.278 354.814C516.766 355.937 516.366 357.433 515.411 358.259C513.925 359.545 511.924 358.654 510.41 359.948C510.212 360.704 510.199 361.565 509.495 361.98C508.212 362.736 506.025 362.725 504.538 363.03C503.868 364.374 503.228 365.736 502.417 367.001C500.426 367.408 497.998 367.693 496.196 368.641C494.118 369.735 493.155 372.775 491.098 373.414C490.111 373.72 488.962 373.069 487.956 373.227C484.591 373.758 480.83 375.556 477.625 376.723L477.287 377.402C477.72 378.049 478.133 378.653 478.426 379.38C475.631 379.773 472.901 378.434 470.131 378.563C466.816 378.718 463.956 381.18 460.715 381.486C456.205 381.912 451.455 381.01 446.937 380.74C435.556 380.059 424.6 379.937 413.367 377.264C407.781 375.935 402.329 371.246 396.557 371.052C390.102 370.834 383.826 375.311 377.995 377.451C375.265 378.453 372.221 379.024 369.362 379.551C361.755 380.952 352.93 382.222 345.195 381.245C343.27 381.001 341.493 380.128 339.604 379.736C337.312 379.262 334.442 379.495 332.067 379.422C330.215 379.365 327.939 379.064 326.135 379.342C323.209 379.793 322.972 381.389 319.836 379.307C317.485 377.745 314.079 377.839 311.361 377.225C298.997 374.434 288.068 370.999 278.06 362.876C273.101 358.8 268.614 354.18 264.685 349.104C262.951 346.898 255.388 334.841 254.012 334.381L252.908 334.937C252.163 334.629 251.926 334.156 251.522 333.504C252.079 333.136 252.546 332.812 252.989 332.3C252.155 330.061 251.119 326.947 249.992 324.854C249.623 324.17 248.041 324.112 247.124 323.988C245.089 322.199 245.632 317.808 244.995 315.197C244.383 312.689 241.44 308.414 240.957 306.183C239.046 297.354 238.343 287.238 237.603 278.271Z"/><defs><linearGradient id="gradient_4" gradientUnits="userSpaceOnUse" x1="254.2009" y1="309.67432" x2="467.05057" y2="340.99844"><stop offset="0" stop-color="#191516"/><stop offset="1" stop-color="#464740"/></linearGradient></defs><path fill="url(#gradient_4)" transform="scale(1.23821 1.23791)" d="M260.41 272.263C262.741 296.166 280.532 323.8 298.733 338.618C321.057 356.791 349.05 363.251 377.292 359.944C392.526 358.16 401.012 354.907 414.304 348.008C420.43 350.007 426.48 352.505 432.679 354.232C443.04 357.117 453.152 357.995 463.777 359.04L463.159 360.08C463.441 360.977 463.768 361.553 464.334 362.3C461.309 362.95 458.082 362.291 455.007 362.745C435.532 362.161 428.407 355.909 411.924 351.066C399.581 356.206 390.496 359.568 377.07 361.765C351.493 365.951 325.244 361.079 304.109 345.742C280.983 328.961 264.358 301.077 259.675 273.009L260.41 272.263Z"/><path fill="#C8C2B9" transform="scale(1.23821 1.23791)" d="M237.603 278.271L237.583 277.945C236.915 265.265 240.219 268.988 241.686 260.877C243.24 252.29 244.168 244.019 248.225 235.543C249.241 233.419 252.442 232.181 251.761 229.404C251.003 226.33 254.849 220.461 256.702 218.136C258.436 215.96 262.198 207.243 264.731 207.693C264.599 209.531 263.325 213.441 262.762 215.365C264.203 213.532 265.741 211.212 267.099 209.275C266.359 212.835 264.434 217.431 263.137 220.946C262.701 219.931 262.617 219.713 262.776 218.619L262.356 218.248C261.48 219.18 259.984 223.488 259.421 224.937C255.863 228.897 250.843 240.071 250.516 245.263C249.191 247.749 243.747 256.164 243.87 257.897L244.925 258.982C244.816 261.97 241.893 265.025 241.091 267.373C239.955 270.699 239.726 274.587 238.527 278.19L237.859 278.469L237.603 278.271Z"/><path fill="#494C45" transform="scale(1.23821 1.23791)" d="M477.793 358.398L478.153 358.449C486.544 359.558 505.121 351.596 507.67 352.019C507.563 352.456 507.651 352.531 507.244 352.778C495.952 359.63 467.773 365.545 455.007 362.745C458.082 362.291 461.309 362.95 464.334 362.3C463.768 361.553 463.441 360.977 463.159 360.08L463.777 359.04C468.442 359.071 473.119 358.429 477.793 358.398Z"/><path fill="#ACA79F" transform="scale(1.23821 1.23791)" d="M250.516 245.263C250.843 240.071 255.863 228.897 259.421 224.937C258.413 232.465 256.758 240.118 250.516 245.263Z"/><defs><linearGradient id="gradient_5" gradientUnits="userSpaceOnUse" x1="316.59995" y1="348.3334" x2="349.18436" y2="270.44641"><stop offset="0" stop-color="#661C1E"/><stop offset="1" stop-color="#D0383E"/></linearGradient></defs><path fill="url(#gradient_5)" transform="scale(1.23821 1.23791)" d="M260.41 272.263C258.76 259.321 258.648 247.808 260.755 234.923C260.886 237.388 261.353 239.254 261.373 241.745C261.178 245.573 260.443 256.584 262.337 259.929C263.494 259.444 262.934 259.47 264.062 259.717C265.766 261.504 266.601 267.98 267.674 271.173C268.111 261.343 267.389 247.96 267.475 237.872C267.48 237.222 268.194 236.932 268.639 236.681L269.597 237.331C267.822 248.942 269.883 264.191 271.403 275.923C271.579 277.286 273.362 280.921 273.66 282.53C274.501 281.727 274.776 281.15 275.714 281.107C278.775 288.708 281.738 296.382 284.824 303.962C285.648 305.985 290.201 308.144 291.341 309.722C295.607 315.681 300.267 321.22 305.702 326.153C307.179 327.494 310.574 328.635 312.083 329.839C325.976 340.921 341.717 344.386 358.855 347.112C365.389 348.152 373.179 346.208 379.162 349.933C383.438 348.975 387.861 348.504 392.162 347.581C399.563 345.993 406.468 343.672 413.558 341.084L414.385 340.499L414.358 344.034L414.304 348.008C401.012 354.907 392.526 358.16 377.292 359.944C349.05 363.251 321.057 356.791 298.733 338.618C280.532 323.8 262.741 296.166 260.41 272.263Z"/><path fill="#C13A35" transform="scale(1.23821 1.23791)" d="M273.66 282.53C274.501 281.727 274.776 281.15 275.714 281.107C278.775 288.708 281.738 296.382 284.824 303.962C285.648 305.985 290.201 308.144 291.341 309.722C295.607 315.681 300.267 321.22 305.702 326.153C307.179 327.494 310.574 328.635 312.083 329.839C325.976 340.921 341.717 344.386 358.855 347.112C365.389 348.152 373.179 346.208 379.162 349.933C360.314 354.216 337.553 349.24 320.78 340.142C305.172 331.675 288.312 316.361 280.109 300.377C277.351 295.003 275.399 288.335 273.66 282.53Z"/><defs><linearGradient id="gradient_6" gradientUnits="userSpaceOnUse" x1="366.55746" y1="274.8916" x2="283.1409" y2="324.58929"><stop offset="0" stop-color="#9C6263"/><stop offset="1" stop-color="#CB7B75"/></linearGradient></defs><path fill="url(#gradient_6)" transform="scale(1.23821 1.23791)" d="M260.41 272.263C258.76 259.321 258.648 247.808 260.755 234.923C260.886 237.388 261.353 239.254 261.373 241.745C261.178 245.573 260.443 256.584 262.337 259.929C262.251 264.26 263.627 272.564 263.384 274.52C262.784 274.157 262.69 273.914 262.285 273.338C261.467 278.511 269.269 299.044 272.034 304.038C283.152 324.123 301.27 343.418 323.024 351.861C330.558 354.457 339.744 356.92 347.631 357.947C365.907 360.326 386.076 357.824 403.396 351.478C407.832 349.853 413.056 348.98 414.358 344.034L414.304 348.008C401.012 354.907 392.526 358.16 377.292 359.944C349.05 363.251 321.057 356.791 298.733 338.618C280.532 323.8 262.741 296.166 260.41 272.263Z"/><path fill="#CD7575" transform="scale(1.23821 1.23791)" d="M265.493 281.771C267.212 283.292 268.397 289.991 268.859 292.408L268.116 291.963C266.493 289.055 266.069 285.035 265.493 281.771Z"/><path fill="#322325" transform="scale(1.23821 1.23791)" d="M267.099 209.275L267.301 208.863C279.519 184.374 299.983 163.411 326.245 154.468C325.102 155.85 316.661 159.732 314.261 160.839C308.258 163.609 289.773 176.778 287.001 182.106C274.937 193.511 262.961 218.348 260.755 234.923C258.648 247.808 258.76 259.321 260.41 272.263L259.675 273.009C256.678 253.151 258.344 239.877 263.137 220.946C264.434 217.431 266.359 212.835 267.099 209.275Z"/><path fill="#FA6A64" transform="scale(1.23821 1.23791)" d="M348.457 149.668C368.571 149.198 385.351 149.023 403.392 159.901C405.04 160.894 411.26 164.16 411.921 165.75C411.721 166.485 411.639 166.538 411.747 167.277C408.828 166.038 402.114 161.233 397.801 159.202C379.896 150.77 360.386 149.438 341.016 152.289C340.359 152.386 340.442 152.44 339.704 152.366C343.945 150.67 344.184 151.561 348.036 150.579L348.457 149.668Z"/><path fill="#CD7575" transform="scale(1.23821 1.23791)" d="M260.755 234.923C262.961 218.348 274.937 193.511 287.001 182.106C285.323 185.545 282.06 188.483 280.08 191.783C270.901 207.083 262.978 223.751 261.373 241.745C261.353 239.254 260.886 237.388 260.755 234.923Z"/><path fill="#C13A35" transform="scale(1.23821 1.23791)" d="M268.639 236.681C269.235 235.712 269.667 235.382 269.642 234.387L268.055 234.653C267.761 233.339 269.294 231.187 270.111 230.123L270.665 230.112C271.155 231.987 270.377 235.612 269.597 237.331L268.639 236.681Z"/><defs><linearGradient id="gradient_7" gradientUnits="userSpaceOnUse" x1="362.09601" y1="178.71954" x2="393.26675" y2="152.76984"><stop offset="0" stop-color="#FF6972"/><stop offset="1" stop-color="#FFA0A1"/></linearGradient></defs><path fill="url(#gradient_7)" transform="scale(1.23821 1.23791)" d="M385.923 182.476L386.195 181.849C385.275 181.799 385.177 181.915 384.34 182.066C378.482 183.126 372.037 180.255 366.774 177.357C362.639 175.079 347.389 168.865 351.85 162.322C353.118 160.462 357.777 159.566 359.1 157.51C359.791 156.548 361.206 155.558 362.452 155.709C373.249 157.014 384.755 155.884 394.944 160.428C397.339 161.497 405.319 164.874 405.549 167.314C403.315 170.883 396.06 174.71 392.553 177.737C390.079 179.872 389.018 180.942 386.77 183.359L385.923 182.476Z"/><path fill="#FA6A64" transform="scale(1.23821 1.23791)" d="M386.77 183.359C384.231 186.354 381.494 191.708 379.716 193.531C380.565 190.149 383.958 185.389 385.923 182.476L386.77 183.359Z"/><defs><linearGradient id="gradient_8" gradientUnits="userSpaceOnUse" x1="384.36459" y1="321.27307" x2="449.58798" y2="183.28444"><stop offset="0" stop-color="#FB5F49"/><stop offset="1" stop-color="#FF9074"/></linearGradient></defs><path fill="url(#gradient_8)" transform="scale(1.23821 1.23791)" d="M414.503 165.379L415.72 164.569L418.805 167.48C429.809 178.549 443.464 193.224 449.173 208.033C450.368 210.256 451.953 213.616 453.128 215.63C466.833 254.756 461.741 295.456 432.395 326.098C428.01 329.95 423.7 334.075 419.008 337.546C417.357 338.398 415.89 339.413 414.385 340.499L413.558 341.084C413.535 340.316 413.136 339.416 412.609 338.861C410.898 337.058 408.138 335.57 406.177 333.906C400.058 328.71 390.915 319.543 389.112 311.461C388.721 310.551 387.51 308.923 386.943 307.924C363.117 265.94 370.223 207.584 406.302 174.586C407.795 173.22 411.768 169.294 411.747 167.277C411.639 166.538 411.721 166.485 411.921 165.75C412.817 165.715 413.622 165.538 414.503 165.379Z"/><path fill="#FAAE91" transform="scale(1.23821 1.23791)" d="M418.805 167.48C429.809 178.549 443.464 193.224 449.173 208.033C446.417 209.783 450.846 213.384 450.468 216.26C449.065 216.191 433.213 183.159 417.372 176.693L416.727 171.89C417.255 169.632 417.368 169.165 418.805 167.48Z"/><path fill="#C13A35" transform="scale(1.23821 1.23791)" d="M389.112 311.461C396.28 320.065 407.656 335.718 419.008 337.546C417.357 338.398 415.89 339.413 414.385 340.499L413.558 341.084C413.535 340.316 413.136 339.416 412.609 338.861C410.898 337.058 408.138 335.57 406.177 333.906C400.058 328.71 390.915 319.543 389.112 311.461Z"/><path fill="#FA6A64" transform="scale(1.23821 1.23791)" d="M414.503 165.379L415.72 164.569L418.805 167.48C417.368 169.165 417.255 169.632 416.727 171.89C416.045 169.878 414.773 167.254 414.503 165.379Z"/><defs><linearGradient id="gradient_9" gradientUnits="userSpaceOnUse" x1="457.92697" y1="348.44403" x2="508.96689" y2="252.23367"><stop offset="0" stop-color="#2FB97C"/><stop offset="1" stop-color="#6DD7A3"/></linearGradient></defs><path fill="url(#gradient_9)" transform="scale(1.23821 1.23791)" d="M453.128 215.63L453.687 215.39C456.382 221.301 456.426 224.858 458.224 229.605L459.519 228.496L460.05 228.642C460.661 229.922 460.413 229.962 461.406 230.467L462.372 229.484C474.102 232.662 487.765 243.203 499.295 247.664C500.231 248.026 502.223 249.95 503.074 250.531C506.645 252.838 511.347 254.004 515.195 256.051C519.292 258.229 523.039 260.251 527.075 262.487C534.559 266.859 549.18 273.709 555.164 279.156C556.244 277.215 556.6 276.485 557.359 274.481C558.454 271.587 558.659 263.685 560.645 261.959C559.653 274.922 557.283 277.506 553.575 289.547C554.385 288.064 555.26 286.54 555.955 285.005C554.061 291.159 552.17 291.951 548.08 296.551C546.466 298.366 544.717 304.422 542.562 305.585L542.544 304.364C541.823 304.457 531.995 316.164 530.512 317.742C505.1 344.765 461.45 348.315 428.93 333.547C428.264 333.244 427.849 332.157 427.697 331.464C429.322 329.938 431.555 328.188 432.395 326.098C461.741 295.456 466.833 254.756 453.128 215.63Z"/><defs><linearGradient id="gradient_10" gradientUnits="userSpaceOnUse" x1="493.75803" y1="347.50873" x2="499.72736" y2="154.12706"><stop offset="0" stop-color="#23A56E"/><stop offset="1" stop-color="#6FCB9F"/></linearGradient></defs><path fill="url(#gradient_10)" transform="scale(1.23821 1.23791)" d="M457.34 155.009C458.482 154.726 459.632 154.475 460.788 154.256C481.816 150.276 502.892 156.11 520.591 167.57C524.547 170.132 528.19 173.354 532.107 176.044C533.169 177.343 541.428 185.351 542.582 186.155L544.282 184.768C545.634 186.435 547.018 188.066 548.17 189.877C566.497 212.981 573.851 252.744 565.746 281.011C564.319 287.077 562.186 292.955 559.388 298.524C554.126 308.752 548.888 316.698 541.068 325.251C540.37 326.014 538.279 328.437 537.536 328.875C533.287 330.93 528.86 335.891 524.896 338.797C510.959 348.953 494.819 355.669 477.793 358.398C473.119 358.429 468.442 359.071 463.777 359.04C453.152 357.995 443.04 357.117 432.679 354.232C426.48 352.505 420.43 350.007 414.304 348.008L414.358 344.034L414.385 340.499C415.89 339.413 417.357 338.398 419.008 337.546C423.7 334.075 428.01 329.95 432.395 326.098C431.555 328.188 429.322 329.938 427.697 331.464C427.849 332.157 428.264 333.244 428.93 333.547C461.45 348.315 505.1 344.765 530.512 317.742C531.995 316.164 541.823 304.457 542.544 304.364L542.562 305.585C544.717 304.422 546.466 298.366 548.08 296.551C552.17 291.951 554.061 291.159 555.955 285.005C555.26 286.54 554.385 288.064 553.575 289.547C557.283 277.506 559.653 274.922 560.645 261.959C563.459 248.287 562.7 224.689 554.954 212.773C555.074 217.862 556.427 223.7 557.45 228.76L556.878 229.62C555.54 226.79 554.638 224.344 553.55 221.416C551.999 216.452 551.369 211.31 548.593 206.852C547.731 205.467 546.925 203.854 546.32 202.345L546.162 201.945C545.539 194.579 539.807 187.882 535.001 182.519C520.203 165.922 499.392 155.922 477.19 154.742C470.765 154.4 464.177 155.386 457.34 155.009Z"/><path fill="#016541" transform="scale(1.23821 1.23791)" d="M561.165 289.712C560.314 292.761 558.467 295.628 559.388 298.524C554.126 308.752 548.888 316.698 541.068 325.251C540.37 326.014 538.279 328.437 537.536 328.875C533.287 330.93 528.86 335.891 524.896 338.797C510.959 348.953 494.819 355.669 477.793 358.398C473.119 358.429 468.442 359.071 463.777 359.04C453.152 357.995 443.04 357.117 432.679 354.232C426.48 352.505 420.43 350.007 414.304 348.008L414.358 344.034L414.385 340.499C415.89 339.413 417.357 338.398 419.008 337.546C423.7 334.075 428.01 329.95 432.395 326.098C431.555 328.188 429.322 329.938 427.697 331.464C425.177 333.163 423.239 335.114 421.396 337.51C432.5 345.364 461.815 348.228 475.696 347.071C506.863 344.473 528.458 329.745 548.213 306.339L549.586 306.583C553.364 305.106 556.032 295.941 558.338 292.572C559.044 291.54 560.215 290.533 561.165 289.712Z"/><path fill="#268C58" transform="scale(1.23821 1.23791)" d="M548.213 306.339C552.007 301.493 558.382 289.307 560.454 283.318L560.589 282.92L560.938 283.167C560.89 284.643 558.48 289.803 557.763 291.635C560.218 290.227 560.023 290.971 561.432 290.629C563.575 290.11 563.2 283.141 565.746 281.011C564.319 287.077 562.186 292.955 559.388 298.524C558.467 295.628 560.314 292.761 561.165 289.712C560.215 290.533 559.044 291.54 558.338 292.572C556.032 295.941 553.364 305.106 549.586 306.583L548.213 306.339Z"/><path fill="#67C49A" transform="scale(1.23821 1.23791)" d="M544.282 184.768C545.634 186.435 547.018 188.066 548.17 189.877C545.477 188.973 544.315 188.411 542.582 186.155L544.282 184.768Z"/><defs><linearGradient id="gradient_11" gradientUnits="userSpaceOnUse" x1="502.41812" y1="196.91576" x2="516.89276" y2="171.80904"><stop offset="0" stop-color="#8DE6B7"/><stop offset="1" stop-color="#DCFEE7"/></linearGradient></defs><path fill="url(#gradient_11)" transform="scale(1.23821 1.23791)" d="M553.55 221.416C553.094 222.495 550.206 224.338 549.067 224.114C545.822 223.423 543.903 218.785 541.851 216.407C538.694 212.749 534.984 208.214 531.224 205.227C523.295 198.927 516.451 192.454 507.415 187.723C496.979 182.098 486.716 178.585 475.818 173.76C472.154 172.571 452.123 165.577 459.456 159.72C463.007 156.884 481.133 158.483 486.157 159.154C505.566 161.747 522.997 173.266 535.569 187.901C539.365 192.32 542.63 197.29 546.162 201.945L546.32 202.345C546.925 203.854 547.731 205.467 548.593 206.852C551.369 211.31 551.999 216.452 553.55 221.416Z"/><path fill="#67C49A" transform="scale(1.23821 1.23791)" d="M514.465 160.078C519.78 162.653 530.75 170.592 534.927 174.788C533.501 174.636 532.388 173.946 531.084 173.301C528.83 171.925 514.945 161.653 514.465 160.078Z"/><path fill="#67C49A" transform="scale(1.23821 1.23791)" d="M557.45 228.76C557.625 230.072 557.966 230.863 557.506 231.921C557.036 230.895 556.987 230.742 556.878 229.62L557.45 228.76Z"/><path fill="#867979" fill-opacity="0.90588236" transform="scale(1.23821 1.23791)" d="M251.522 333.504C251.137 332.286 249.321 330.723 249.518 329.443C250.93 330.087 251.348 331.477 252.597 332.117C252.726 332.183 252.859 332.239 252.989 332.3C252.546 332.812 252.079 333.136 251.522 333.504Z"/><path fill="#0F5B61" transform="scale(1.23821 1.23791)" d="M139.668 250.867C140.919 249.903 142.164 248.93 143.402 247.948C144.915 248.667 145.294 248.526 146.012 249.769C145.79 250.91 145.707 251.113 145.19 252.157L140.569 256.218C153.171 266.976 165.701 277.82 178.157 288.748C207.012 314.218 236.333 340.695 268.499 361.663C318.97 394.564 376.502 412.771 437.091 407.44C473.316 404.252 511.095 392.295 542.572 374.224C568.1 359.355 588.724 345.21 610.517 325.028C626.958 309.803 642.131 293.773 658.171 278.181L659.529 276.979C659.904 276.932 660.378 276.873 660.949 276.801C668.935 269.719 677.39 262.684 685.333 255.62C687.736 253.483 689.841 251.116 691.617 249.214C694.728 249.115 700.657 253.12 708.686 253.042C708.289 252.992 707.879 252.866 707.489 252.765C709.462 252.228 708.878 252.38 711.05 253.025C713.837 253.754 718.199 254.431 721.059 254.022C723.473 252.857 725.321 252.472 727.887 251.823C730.442 253.076 730.772 253.39 732.903 255.245C729.578 260.038 730.943 262.934 728.146 267.471C727.6 268.357 723.28 268.891 722.174 269.561C714.547 274.188 705.882 277.743 698.466 282.616C692.268 286.69 689.279 294.687 681.155 296.52C677.604 297.322 675.38 293.455 675.01 290.56C674.945 290.038 674.906 289.512 674.893 288.986L674.554 288.913C673.962 289.817 671.555 293.618 670.977 294.18C668.305 297.483 665.626 300.018 662.392 302.769C637.621 326.889 614.157 351.459 584.687 370.075C579.767 373.183 573.757 378.035 568.466 380.113C559.888 391.607 545.544 397.233 533.06 403.664C530.916 404.768 529.931 405.206 528.479 407.191C528.108 407.698 526.124 406.895 525.757 407.028C524.26 407.568 522.658 408.168 521.154 408.716C508.439 412.703 494.251 418.06 481.36 420.686C478.986 419.888 478.326 419.892 475.954 420.871C462.257 426.527 447.25 426.404 432.75 428.159C429.039 428.608 424.82 427.649 421.445 428.729C419.775 429.264 417.481 428.694 415.691 428.822C391.39 430.555 367.472 425.859 343.846 420.784C339.07 419.755 334.017 417.369 329.237 416.129C293.729 406.913 262.509 386.525 233.164 365.204C228.818 362.293 225.042 357.426 220.971 354.415C210.952 347.006 202.849 338.761 193.949 330.147L158.052 295.194C154.506 291.791 151.052 289.473 147.519 286.349C144.873 283.536 142.521 280.812 139.701 278.176C134.819 273.609 122.289 265.76 120.012 259.596L118.84 260.233L118.298 260.004C116.951 259.157 115.777 258.498 115.494 256.9L116.253 256.348C117.176 256.212 118.003 256.133 118.932 256.048C120.329 255.31 120.918 253.424 121.598 251.919C122.354 252.422 123.123 252.905 123.905 253.365C125.927 254.533 127.037 254.812 129.363 254.166C130.892 252.45 137.344 250.9 139.668 250.867Z"/><defs><linearGradient id="gradient_12" gradientUnits="userSpaceOnUse" x1="371.6286" y1="269.08072" x2="295.00455" y2="403.49265"><stop offset="0" stop-color="#308688"/><stop offset="1" stop-color="#5EA6AA"/></linearGradient></defs><path fill="url(#gradient_12)" transform="scale(1.23821 1.23791)" d="M121.598 251.919C122.354 252.422 123.123 252.905 123.905 253.365C125.927 254.533 127.037 254.812 129.363 254.166L130.544 254.088C131.051 254.212 131.672 254.365 132.407 254.546C135.332 257.697 135.69 260.071 139.182 262.826C153.551 274.16 167.423 286.752 180.704 299.335C185.209 303.602 192.491 309.89 196.352 314.225C210.087 326.484 223.242 339.208 237.664 350.697C246.419 357.671 255.697 363.597 264.739 370.135C265.95 369.271 266.137 368.944 267.64 369.237C269.01 369.504 271.174 371.215 271.922 372.359C278.514 377.294 286.034 381.193 293.345 384.958C296.07 386.362 299.659 387.694 302.112 389.441C311.278 393.426 320.425 397.557 330.091 400.208C338.862 402.613 347.905 403.807 356.813 405.573C378.838 409.938 401.215 413.216 423.727 413.186C437.541 413.168 451.211 411.876 464.945 410.555C468.979 410.167 472.928 410.798 476.535 410.404C485.291 409.447 494.214 406.653 502.777 404.634C508.917 403.186 515.271 402.225 521.284 400.311C529.001 397.855 537.042 394.548 544.446 391.259C550.475 388.58 562.53 380.315 568.466 380.113C559.888 391.607 545.544 397.233 533.06 403.664C530.916 404.768 529.931 405.206 528.479 407.191C528.108 407.698 526.124 406.895 525.757 407.028C524.26 407.568 522.658 408.168 521.154 408.716C508.439 412.703 494.251 418.06 481.36 420.686C478.986 419.888 478.326 419.892 475.954 420.871C462.257 426.527 447.25 426.404 432.75 428.159C429.039 428.608 424.82 427.649 421.445 428.729C419.775 429.264 417.481 428.694 415.691 428.822C391.39 430.555 367.472 425.859 343.846 420.784C339.07 419.755 334.017 417.369 329.237 416.129C293.729 406.913 262.509 386.525 233.164 365.204C228.818 362.293 225.042 357.426 220.971 354.415C210.952 347.006 202.849 338.761 193.949 330.147L158.052 295.194C154.506 291.791 151.052 289.473 147.519 286.349C144.873 283.536 142.521 280.812 139.701 278.176C134.819 273.609 122.289 265.76 120.012 259.596L118.84 260.233L118.298 260.004C116.951 259.157 115.777 258.498 115.494 256.9L116.253 256.348C117.176 256.212 118.003 256.133 118.932 256.048C120.329 255.31 120.918 253.424 121.598 251.919Z"/><path fill="#AEDDE1" transform="scale(1.23821 1.23791)" d="M196.352 314.225C210.087 326.484 223.242 339.208 237.664 350.697C246.419 357.671 255.697 363.597 264.739 370.135C265.95 369.271 266.137 368.944 267.64 369.237C269.01 369.504 271.174 371.215 271.922 372.359C278.514 377.294 286.034 381.193 293.345 384.958C296.07 386.362 299.659 387.694 302.112 389.441L301.566 389.611L301.379 390.019L301.123 390.067L302.09 390.673L301.942 391.214C309.814 396.36 341.9 408.098 351.412 409.489C351.715 410.553 351.86 410.899 351.261 411.917C350.947 412.45 350.517 412.958 350.135 413.443C340.79 409.551 329.47 407.569 319.633 403.979C297.952 396.064 271.105 382.357 252.891 368.218C246.774 363.469 241.719 357.545 235.995 352.358C228.339 345.421 220.217 339.08 212.588 332.066C209.428 329.161 197.307 319.349 196.003 315.986C195.706 315.217 196.027 314.896 196.352 314.225Z"/><path fill="#53A0A4" transform="scale(1.23821 1.23791)" d="M271.922 372.359C278.514 377.294 286.034 381.193 293.345 384.958C296.07 386.362 299.659 387.694 302.112 389.441L301.566 389.611L301.379 390.019L301.123 390.067L302.09 390.673L301.942 391.214C295.698 389.343 277.632 379.075 272.221 375.113L272.877 374.56C272.492 373.999 272.112 373.484 271.99 372.8C271.964 372.654 271.945 372.506 271.922 372.359Z"/><path fill="#297A7E" transform="scale(1.23821 1.23791)" d="M264.739 370.135C265.95 369.271 266.137 368.944 267.64 369.237C269.01 369.504 271.174 371.215 271.922 372.359C271.945 372.506 271.964 372.654 271.99 372.8C272.112 373.484 272.492 373.999 272.877 374.56L272.221 375.113C269.658 373.575 267.211 371.815 264.739 370.135Z"/><path fill="#AEDDE1" transform="scale(1.23821 1.23791)" d="M351.412 409.489C365.694 412.876 380.221 415.985 394.832 417.553C394.928 417.603 395.023 417.656 395.12 417.703C399.212 419.665 411.96 419.083 413.684 420.102C413.939 420.253 414.287 420.757 414.501 420.991L414.028 420.265C414.501 420.7 414.384 420.718 414.437 421.321C413.469 422.44 412.45 422.709 410.987 422.814C404.974 423.248 398.929 421.853 392.821 422.492C384.171 422.329 367.312 421.144 359.341 418.263C357.51 417.601 356.608 415.719 354.952 414.783C353.669 414.059 351.59 413.778 350.135 413.443C350.517 412.958 350.947 412.45 351.261 411.917C351.86 410.899 351.715 410.553 351.412 409.489Z"/><path fill="#7EBBBF" transform="scale(1.23821 1.23791)" d="M394.832 417.553C399.614 417.641 417.477 419.017 421.569 420.225L421.247 420.727C420.59 420.846 419.953 420.927 419.353 421.237L419.311 422.57C416.237 424.042 396.712 423.615 392.821 422.492C398.929 421.853 404.974 423.248 410.987 422.814C412.45 422.709 413.469 422.44 414.437 421.321C414.384 420.718 414.501 420.7 414.028 420.265L414.501 420.991C414.287 420.757 413.939 420.253 413.684 420.102C411.96 419.083 399.212 419.665 395.12 417.703C395.023 417.656 394.928 417.603 394.832 417.553Z"/><path fill="#53A0A4" transform="scale(1.23821 1.23791)" d="M118.298 260.004C116.951 259.157 115.777 258.498 115.494 256.9L116.253 256.348L116.528 257.004C117.356 257.902 118.703 258.792 118.298 260.004Z"/><path fill="#18413F" transform="scale(1.23821 1.23791)" d="M116.528 257.004C118.67 257.345 118.813 257.633 120.012 259.596L118.84 260.233L118.298 260.004C118.703 258.792 117.356 257.902 116.528 257.004Z"/><path fill="#53A0A4" transform="scale(1.23821 1.23791)" d="M492.94 410.889C493.757 410.95 494.64 410.758 495.453 410.647L495.603 411.092C490.217 412.423 480.028 415.519 474.778 415.13C474.123 415.045 473.278 415.323 472.621 415.46L472.182 415.124C473.921 414.367 476.534 414.392 478.454 414.032C483.309 413.122 488.169 412.172 492.94 410.889Z"/><path fill="#297A7E" transform="scale(1.23821 1.23791)" d="M727.887 251.823C730.442 253.076 730.772 253.39 732.903 255.245C729.578 260.038 730.943 262.934 728.146 267.471C727.6 268.357 723.28 268.891 722.174 269.561C714.547 274.188 705.882 277.743 698.466 282.616C692.268 286.69 689.279 294.687 681.155 296.52C677.604 297.322 675.38 293.455 675.01 290.56C674.945 290.038 674.906 289.512 674.893 288.986L674.554 288.913L674.307 288.302C679.449 280.829 691.782 269.432 699.033 263.662C701.599 261.62 706.738 258.563 709.701 256.437C710.63 254.949 710.695 254.749 711.05 253.025C713.837 253.754 718.199 254.431 721.059 254.022C723.473 252.857 725.321 252.472 727.887 251.823Z"/><path fill="#53A0A4" transform="scale(1.23821 1.23791)" d="M711.05 253.025C713.837 253.754 718.199 254.431 721.059 254.022C722.576 254.676 723.063 254.539 723.617 255.726C722.769 257.073 721.845 257.66 720.764 258.788C716.44 256.56 714.554 255.803 709.701 256.437C710.63 254.949 710.695 254.749 711.05 253.025Z"/><defs><linearGradient id="gradient_13" gradientUnits="userSpaceOnUse" x1="600.44983" y1="326.2226" x2="607.10889" y2="334.05472"><stop offset="0" stop-color="#4C797D"/><stop offset="1" stop-color="#6B8D91"/></linearGradient></defs><path fill="url(#gradient_13)" transform="scale(1.23821 1.23791)" d="M658.171 278.181C658.972 280.569 659.929 281.566 661.692 283.388C633.192 311.375 584.097 361.751 547.021 376.844C545.887 376.24 543.387 375.02 542.572 374.224C568.1 359.355 588.724 345.21 610.517 325.028C626.958 309.803 642.131 293.773 658.171 278.181Z"/><path fill="#C8C2B9" transform="scale(1.23821 1.23791)" d="M139.668 250.867C140.919 249.903 142.164 248.93 143.402 247.948C144.915 248.667 145.294 248.526 146.012 249.769C145.79 250.91 145.707 251.113 145.19 252.157L140.569 256.218L137.954 254.047C138.429 252.958 139.075 251.902 139.668 250.867Z"/><path fill="#18413F" transform="scale(1.23821 1.23791)" d="M129.363 254.166C130.892 252.45 137.344 250.9 139.668 250.867C139.075 251.902 138.429 252.958 137.954 254.047C136.01 253.898 132.595 254.056 130.544 254.088L129.363 254.166Z"/><path fill="#898984" transform="scale(1.23821 1.23791)" d="M262.11 151.241C270.137 144.677 290.18 134.732 299.823 130.301C343.399 110.282 387.522 99.2525 435.804 103.88C515.318 111.5 571.596 156.636 631.138 204.899L669.557 236.237C675.85 241.378 682.37 246.195 688.412 251.609C685.052 254.842 679.633 260.166 675.901 262.667C674.76 263.703 672.029 266.388 670.708 266.793L670.927 266.034C669.799 262.015 631.589 232.892 627.149 227.548C626.945 227.303 620.252 222.687 619.22 221.942C610.51 215.669 603.004 207.992 594.43 201.542C593.71 201 589.272 203.165 590.11 198.264C588.821 196.837 580.888 191.715 578.773 190.089C573.473 186.014 568.113 181.95 562.489 178.322C560.307 176.914 558.239 175.02 555.92 173.595C554.374 172.646 551.75 171.944 550.789 171.283C546.335 168.223 543.505 165.205 538.697 162.447C532.925 159.135 527.684 156.962 521.748 154.14C517.506 152.007 513.333 149.102 509.045 147.119C493.374 139.874 477.45 133.961 460.563 130.252C456.353 129.327 451.88 127.188 447.573 126.432C441.929 125.442 436.147 124.798 430.475 123.947C427.689 123.521 424.606 121.773 422.774 121.699C409.796 121.177 396.154 121.257 383.19 121.936C378.381 122.188 372.02 123.86 366.987 124.317C363.787 124.608 360.645 124.812 357.395 124.872C357.071 124.877 355.581 126.028 355.217 126.311C350.224 126.877 348.51 127.246 343.569 126.805C341.845 127.594 339.424 129.415 338.137 129.881C336.837 130.608 330.234 131.004 329.475 131.533C324.949 134.695 321.262 135.41 316.002 136.781C313.453 137.446 309.869 139.458 307.495 140.69C305.933 140.13 305.161 139.628 303.774 140.188L303.639 141.853C302.669 142.805 295.544 143.967 293.437 144.885C287.385 147.522 282.223 152.152 275.599 153.183C271.566 153.81 271.772 156.213 269.105 157.833C266.629 159.541 261.337 161.089 259.153 162.823C248.214 171.509 236.147 176.64 225.596 186.03C220.335 190.712 208.185 197.168 204.788 203.312C204.395 203.397 201.783 203.987 201.653 204.117C195.048 210.725 187.841 214.979 183.642 223.585C181.302 224.749 177.752 225.332 176.118 226.677C175.499 227.977 175.881 228.099 176.477 229.824L175.975 230.524C174.693 231.297 174.058 231.172 172.599 231.079L172.103 231.045C169.439 232.871 172.067 233.333 171.461 235.58C169.197 237.918 168.231 236.932 165.308 237.731C164.928 238.774 164.851 239.195 164.644 240.293L164.248 240.129C164.236 239.261 164.201 238.817 164.1 237.952C161.454 237.596 160.773 239.772 160.286 241.637C159.786 243.555 154.682 245.596 153.134 247.026C151.716 248.338 150.475 249.683 149.175 251.104C147.842 251.437 146.513 251.788 145.19 252.157C145.707 251.113 145.79 250.91 146.012 249.769C145.294 248.526 144.915 248.667 143.402 247.948C150.235 242.586 157.31 236.413 164.041 230.815C169.37 226.866 173.541 222.078 178.695 218.081C185.926 210.863 195.206 203.557 202.945 196.679C221.377 180.298 241.087 164.234 262.11 151.241Z"/><path fill="#ACA79F" transform="scale(1.23821 1.23791)" d="M262.11 151.241C262.228 151.232 262.347 151.225 262.465 151.215C270.191 150.539 286.752 140.577 294.837 137.188C312.669 129.716 330.163 124.08 349.049 119.931C354.015 118.84 359.051 117.516 364.094 116.846C371.751 115.829 379.837 115.576 387.569 115.285C396.137 114.963 405.35 114.852 413.885 115.602C419.173 116.066 424.373 117.036 429.639 117.607C433.665 118.043 437.747 117.804 441.762 118.287C447.513 118.98 457.691 121.544 463.494 123.013C469.678 124.577 475.307 127.139 481.353 128.92C483.72 129.618 486.263 129.682 488.565 130.586C491.907 131.899 504.217 138.683 506.885 138.567C510.302 138.418 518.903 145.515 521.617 145.936C522.035 146.001 522.803 145.552 523.153 145.333C524.81 145.986 526.382 148.673 527.031 148.827C534.268 150.552 540.228 155.113 546.528 158.92C548.4 160.052 550.756 163.12 552.777 164.335C556.476 166.574 560.708 168.226 564.323 170.581C567.387 172.578 570.411 175.811 573.487 177.731C583.261 183.832 591.332 190.928 600.101 198.247C607.608 204.514 616.344 210.464 624.055 216.5C628.397 219.771 634.302 225.235 638.812 228.955L659.06 245.626C666.023 251.357 671.204 254.726 675.901 262.667C674.76 263.703 672.029 266.388 670.708 266.793L670.927 266.034C669.799 262.015 631.589 232.892 627.149 227.548C626.945 227.303 620.252 222.687 619.22 221.942C610.51 215.669 603.004 207.992 594.43 201.542C593.71 201 589.272 203.165 590.11 198.264C588.821 196.837 580.888 191.715 578.773 190.089C573.473 186.014 568.113 181.95 562.489 178.322C560.307 176.914 558.239 175.02 555.92 173.595C554.374 172.646 551.75 171.944 550.789 171.283C546.335 168.223 543.505 165.205 538.697 162.447C532.925 159.135 527.684 156.962 521.748 154.14C517.506 152.007 513.333 149.102 509.045 147.119C493.374 139.874 477.45 133.961 460.563 130.252C456.353 129.327 451.88 127.188 447.573 126.432C441.929 125.442 436.147 124.798 430.475 123.947C427.689 123.521 424.606 121.773 422.774 121.699C409.796 121.177 396.154 121.257 383.19 121.936C378.381 122.188 372.02 123.86 366.987 124.317C363.787 124.608 360.645 124.812 357.395 124.872C357.071 124.877 355.581 126.028 355.217 126.311C350.224 126.877 348.51 127.246 343.569 126.805C341.845 127.594 339.424 129.415 338.137 129.881C336.837 130.608 330.234 131.004 329.475 131.533C324.949 134.695 321.262 135.41 316.002 136.781C313.453 137.446 309.869 139.458 307.495 140.69C305.933 140.13 305.161 139.628 303.774 140.188L303.639 141.853C302.669 142.805 295.544 143.967 293.437 144.885C287.385 147.522 282.223 152.152 275.599 153.183C271.566 153.81 271.772 156.213 269.105 157.833C266.629 159.541 261.337 161.089 259.153 162.823C248.214 171.509 236.147 176.64 225.596 186.03C220.335 190.712 208.185 197.168 204.788 203.312C204.395 203.397 201.783 203.987 201.653 204.117C195.048 210.725 187.841 214.979 183.642 223.585C181.302 224.749 177.752 225.332 176.118 226.677C175.499 227.977 175.881 228.099 176.477 229.824L175.975 230.524C174.693 231.297 174.058 231.172 172.599 231.079L172.103 231.045C169.439 232.871 172.067 233.333 171.461 235.58C169.197 237.918 168.231 236.932 165.308 237.731C164.928 238.774 164.851 239.195 164.644 240.293L164.248 240.129C164.236 239.261 164.201 238.817 164.1 237.952C161.454 237.596 160.773 239.772 160.286 241.637C159.786 243.555 154.682 245.596 153.134 247.026C151.716 248.338 150.475 249.683 149.175 251.104C147.842 251.437 146.513 251.788 145.19 252.157C145.707 251.113 145.79 250.91 146.012 249.769C145.294 248.526 144.915 248.667 143.402 247.948C150.235 242.586 157.31 236.413 164.041 230.815C169.37 226.866 173.541 222.078 178.695 218.081C185.926 210.863 195.206 203.557 202.945 196.679C221.377 180.298 241.087 164.234 262.11 151.241Z"/><path fill="#C8C2B9" transform="scale(1.23821 1.23791)" d="M164.041 230.815C169.37 226.866 173.541 222.078 178.695 218.081C178.945 220.047 178.733 221.194 177.402 222.771C175.228 225.347 167.506 232.749 164.635 233.283C164.177 232.185 164.184 232.014 164.041 230.815Z"/><path fill="#297A7E" transform="scale(1.23821 1.23791)" d="M311.644 65.0118C312.2 65.3508 312.187 65.5678 312.452 66.1422C314.361 66.9375 316.476 66.2996 318.487 66.0734C317.873 66.441 317.27 66.8392 316.647 67.1901C313.197 69.1351 311.235 72.855 307.708 74.6832C301.246 78.0325 302.272 73.7455 298.662 72.5719C296.985 72.5738 295.389 73.8373 293.99 74.7022C291.447 76.046 289.41 76.7727 286.522 76.9113C291.423 75.156 295.769 72.184 300.414 69.8722C304.07 68.0526 307.944 66.7463 311.644 65.0118Z"/><path fill="#616A64" transform="scale(1.23821 1.23791)" d="M726.482 279.823L726.812 280.113L726.776 280.626C723.411 283.986 719.361 286.859 715.524 289.659L715.266 289.386C715.994 286.946 724.065 281.225 726.482 279.823Z"/><path fill="#ACA79F" transform="scale(1.23821 1.23791)" d="M596.851 425.808L597.274 424.46C598.18 424.668 599.078 424.881 599.971 425.138L600.441 425.917C599.814 426.507 599.27 426.607 598.38 426.492C597.841 426.423 597.291 426.108 596.851 425.808Z"/><path fill="#898984" fill-opacity="0.93333334" transform="scale(1.23821 1.23791)" d="M750.222 285.502L751.547 284.966C751.52 286.168 751.559 288.051 751.283 289.161L750.824 288.807L751.021 289.966C750.012 287.802 750.881 287.449 750.222 285.502Z"/><path fill="#ACA79F" fill-opacity="0.98039216" transform="scale(1.23821 1.23791)" d="M522.34 474.964L523.799 474.186C524.532 474.893 525.252 475.291 525.347 476.341C524.104 476.346 523.264 475.807 522.34 474.964Z"/></svg>